<?xml version="1.0" encoding="iso-8859-1"?>
<!-- Generator: Adobe Illustrator 19.0.0, SVG Export Plug-In . SVG Version: 6.00 Build 0)  -->
<svg version="1.1" id="Capa_1" xmlns="http://www.w3.org/2000/svg" xmlns:xlink="http://www.w3.org/1999/xlink" x="0px" y="0px"
	 viewBox="0 0 341.333 341.333" style="enable-background:new 0 0 341.333 341.333;" xml:space="preserve">
<g>
	<g>
		<g>
			<path d="M170.667,85.333c23.573,0,42.667-19.093,42.667-42.667C213.333,19.093,194.24,0,170.667,0S128,19.093,128,42.667
				C128,66.24,147.093,85.333,170.667,85.333z"/>
			<path d="M170.667,128C147.093,128,128,147.093,128,170.667s19.093,42.667,42.667,42.667s42.667-19.093,42.667-42.667
				S194.24,128,170.667,128z"/>
			<path d="M170.667,256C147.093,256,128,275.093,128,298.667c0,23.573,19.093,42.667,42.667,42.667s42.667-19.093,42.667-42.667
				C213.333,275.093,194.24,256,170.667,256z"/>
		</g>
	</g>
</g>
<g>
</g>
<g>
</g>
<g>
</g>
<g>
</g>
<g>
</g>
<g>
</g>
<g>
</g>
<g>
</g>
<g>
</g>
<g>
</g>
<g>
</g>
<g>
</g>
<g>
</g>
<g>
</g>
<g>
</g>
</svg>
